<?xml version="1.0" standalone="no"?>
<!DOCTYPE svg PUBLIC "-//W3C//DTD SVG 20010904//EN"
 "http://www.w3.org/TR/2001/REC-SVG-20010904/DTD/svg10.dtd">
<svg version="1.0" xmlns="http://www.w3.org/2000/svg"
 width="700.000000pt" height="700.000000pt" viewBox="0 0 700.000000 700.000000"
 preserveAspectRatio="xMidYMid meet">
<metadata>
Created by potrace 1.11, written by Peter Selinger 2001-2013
</metadata>
<g transform="translate(0.000000,700.000000) scale(0.100000,-0.100000)"
fill="#000000" stroke="none">
<path d="M0 3500 l0 -3500 3500 0 3500 0 0 3500 0 3500 -3500 0 -3500 0 0
-3500z m2960 1140 c0 -670 1 -710 18 -709 11 0 29 26 54 77 76 157 197 280
353 357 193 95 496 118 725 54 361 -100 581 -358 657 -769 16 -86 18 -182 18
-1050 l0 -955 -385 0 -385 0 -5 895 c-5 837 -6 899 -24 950 -28 83 -53 128
-104 182 -79 85 -162 123 -302 139 -228 26 -439 -79 -529 -262 -68 -141 -65
-93 -69 -1046 l-3 -863 -384 0 -385 0 0 1855 0 1855 375 0 375 0 0 -710z"/>
</g>
</svg>
